# xmcd
#
# Track frame offsets: 
#        150
#        14630
#        35945
#        54394
#        79369
#        90792
#        122216
#        134069
#        149849
#        188892
#        200677
#        215646
#        249236
#        289411
#        307019
#        323248
#        346588
#
# Disc length: 4766 seconds
#
# Revision: 0
# Processed by: cddbd v1.5.2PL0 Copyright (c) Steve Scherf et al.
# Submitted via: ExactAudioCopy v1.3
#
DISCID=13129c11
DTITLE=Various Artist - Akella Presents - vol.170 - Various Styles Of
DTITLE=Blues  CD2
DYEAR=2018
DGENRE=Blues
TTITLE0=Sweet Scarlett - With You
TTITLE1=The D.B. Walker Band - This Way Again
TTITLE2=John Hiatt - The Odds Of Loving You
TTITLE3=Mike Zito - Damn Shame
TTITLE4=Dave Meniketti - Parchman Farm
TTITLE5=The Gamblers - Drunken Hearted Blues
TTITLE6=Parker Millsap - Fine Line
TTITLE7=John Mellenkamp - Down In The Bottom
TTITLE8=Eric Steckel - Make It Rain
TTITLE9=Wilko Johnson - That’s The Way I Love You 
TTITLE10=Ty Curtis Band - Bon Ton Boy
TTITLE11=Eric Street Band - I'd Rather Go Blind
TTITLE12=Subluna - Sucker Sucker Train
TTITLE13=Danny Bryant - Search for You
TTITLE14=Blues Company and Joanna Connor - Dance All Nite
TTITLE15=RoosterHouse Gumbo Band - All The Beautiful In The World
TTITLE16=Brian Fraser - Dot Com
EXTD=
EXTT0=
EXTT1=
EXTT2=
EXTT3=
EXTT4=
EXTT5=
EXTT6=
EXTT7=
EXTT8=
EXTT9=
EXTT10=
EXTT11=
EXTT12=
EXTT13=
EXTT14=
EXTT15=
EXTT16=
PLAYORDER=
